P2
# CREATOR: GIMP PNM Filter Version 1.1
64 64
255
121
52
55
55
54
53
52
52
49
45
44
42
40
45
47
47
46
44
42
44
47
47
50
48
49
54
61
62
62
60
57
52
47
42
41
40
37
38
47
50
50
51
56
60
59
57
55
50
47
44
46
50
53
55
56
54
49
49
47
45
44
46
47
121
120
47
53
60
63
63
61
56
55
52
50
50
46
19
20
4
4
4
4
4
6
6
6
5
5
6
6
7
9
8
7
5
4
3
4
5
5
4
4
6
9
10
9
8
10
9
6
15
21
41
44
44
44
44
41
39
41
44
45
45
49
52
50
123
121
46
47
50
53
60
63
64
64
64
62
58
35
4
3
8
58
60
61
62
62
64
66
67
66
65
67
67
69
69
67
67
67
66
65
65
65
62
61
62
67
67
65
74
65
62
58
2
2
25
39
37
36
34
31
34
37
41
42
43
42
47
48
120
125
49
48
50
52
56
60
62
62
62
63
63
29
8
77
166
120
162
149
147
147
149
149
149
149
148
148
149
149
146
148
148
148
148
155
153
159
164
173
173
173
173
173
182
157
159
97
10
52
36
37
37
36
35
36
40
40
40
45
48
52
52
48
121
123
47
44
41
41
47
45
44
46
51
54
56
23
8
72
19
9
11
12
12
11
10
10
8
7
5
4
4
5
6
8
8
6
6
8
28
72
102
94
94
90
89
74
72
50
17
10
10
142
98
48
51
49
53
54
55
56
57
56
56
51
48
47
120
120
44
42
40
41
44
44
40
40
43
48
54
56
39
131
81
81
78
80
78
78
78
75
73
72
71
67
65
65
63
63
66
44
6
5
11
26
16
19
20
19
17
10
7
9
12
13
153
200
102
58
61
61
63
63
64
64
64
63
60
52
45
41
116
124
50
47
46
47
48
50
51
52
52
56
60
62
81
104
121
190
182
182
182
182
182
182
182
182
182
92
64
62
61
52
64
52
13
32
71
107
82
41
40
44
28
3
4
32
140
211
216
144
65
63
61
56
55
60
60
62
61
61
58
53
45
44
121
126
56
53
49
51
55
56
55
58
61
61
59
59
59
56
55
63
55
55
53
53
56
73
43
10
8
5
4
47
71
65
35
6
8
168
149
152
86
46
44
3
3
25
126
215
215
147
98
65
58
54
48
48
47
48
50
52
51
51
48
50
47
47
124
124
51
50
50
49
47
47
45
47
52
58
59
54
48
46
45
62
69
71
74
58
22
9
8
43
94
205
208
198
126
29
6
33
139
182
162
97
19
12
10
12
134
216
215
140
52
54
47
47
47
49
45
45
46
49
52
52
47
45
42
45
47
46
120
123
50
50
51
49
45
43
42
42
46
50
50
45
38
36
34
35
37
28
10
4
4
72
211
212
211
200
125
25
4
28
99
178
116
71
37
19
19
48
146
194
185
19
11
35
55
50
47
47
47
48
46
44
45
48
53
52
49
46
44
42
41
40
116
121
48
47
45
44
44
44
45
48
53
53
50
50
45
39
36
37
19
2
2
34
215
216
211
200
81
2
3
18
102
185
114
104
36
17
13
61
165
213
194
123
131
104
29
9
12
43
50
53
55
56
55
52
50
51
50
48
45
40
40
40
37
39
119
123
53
53
50
52
52
49
50
52
53
60
60
62
57
50
45
10
4
17
137
220
213
194
73
6
5
28
104
189
172
126
34
23
9
9
153
216
189
131
105
121
109
114
110
81
9
9
37
52
55
56
53
55
55
56
54
48
44
38
34
38
40
45
120
125
53
52
50
47
45
48
49
52
55
56
58
59
57
59
19
9
34
209
216
201
92
8
8
34
134
198
143
81
39
37
10
7
8
67
169
98
65
49
73
97
95
104
95
76
86
29
8
36
50
49
51
53
55
55
50
49
44
37
38
43
48
48
121
129
59
56
55
50
46
48
50
54
60
61
62
62
63
23
15
47
215
205
177
86
9
32
133
185
168
95
46
17
50
75
17
28
25
23
7
6
4
3
2
11
21
36
82
89
80
57
12
6
34
52
53
49
47
46
44
47
47
47
45
44
47
48
124
129
59
59
58
54
50
47
47
52
58
62
63
64
23
13
43
213
208
182
149
11
29
181
121
50
25
30
60
70
102
91
53
71
119
166
174
104
55
62
59
59
5
7
60
59
67
63
56
18
8
36
49
45
40
39
45
52
57
57
52
47
47
50
125
124
52
56
55
52
50
47
46
46
50
55
62
47
12
42
209
205
176
156
126
12
39
21
7
6
25
15
6
5
5
7
9
27
73
140
118
140
124
148
148
137
66
47
47
58
108
74
63
37
9
9
35
44
47
50
52
52
51
52
53
53
54
56
128
123
50
49
47
45
45
47
49
52
53
52
48
9
19
180
204
169
134
111
53
49
65
67
62
69
32
6
8
6
6
4
5
8
8
21
64
82
88
44
118
25
13
110
98
59
61
57
45
34
21
6
8
40
45
50
50
49
46
45
47
49
51
52
125
123
47
47
46
44
45
49
51
50
48
46
11
5
126
196
176
120
71
60
25
10
37
67
148
177
160
172
182
182
189
156
40
7
30
114
41
25
29
48
27
15
51
186
115
60
58
55
67
35
24
3
5
15
31
37
43
44
40
39
37
37
37
41
118
125
54
53
51
52
56
57
55
55
53
37
7
36
193
172
155
126
71
9
5
8
9
9
8
5
4
3
26
67
69
65
63
50
125
108
38
52
56
9
8
103
212
139
25
33
49
48
29
33
14
21
12
13
32
33
35
39
39
42
44
44
43
44
120
125
52
54
56
56
56
58
58
60
58
17
8
148
189
164
113
16
17
5
8
6
5
5
6
76
134
205
197
192
201
125
14
37
143
147
66
24
6
7
111
185
67
8
13
11
29
49
27
44
19
15
5
25
27
42
42
42
44
42
43
46
50
50
123
123
47
47
47
47
47
48
46
48
35
7
52
185
165
125
91
25
16
11
10
8
10
78
216
209
181
140
64
60
16
8
12
173
177
71
11
8
58
216
174
78
8
9
11
19
34
48
67
52
25
10
11
19
19
51
51
50
49
47
45
47
52
55
125
126
57
53
49
50
47
44
44
46
24
9
137
170
139
78
24
10
8
9
12
44
216
216
148
75
74
65
38
7
6
33
193
143
57
9
9
137
219
213
91
102
92
27
17
17
23
36
52
51
48
31
9
13
56
40
52
52
56
54
51
52
56
55
125
125
52
54
53
53
53
50
50
52
13
31
176
159
138
89
13
10
9
8
134
220
176
101
64
64
64
36
13
10
104
177
99
21
8
35
140
215
166
81
55
69
89
96
39
16
18
38
42
40
44
28
10
8
51
35
51
53
54
55
53
54
54
52
124
121
48
53
56
56
54
53
56
51
11
62
152
144
72
13
10
10
8
139
213
148
65
54
55
57
20
11
10
120
164
76
10
6
31
206
219
144
48
48
55
67
72
75
56
62
18
28
42
83
53
34
9
6
26
33
43
48
52
53
55
53
52
49
120
124
51
52
51
49
47
47
47
22
6
135
159
134
67
12
8
7
74
204
142
53
49
48
34
14
6
31
194
176
72
12
9
134
216
201
92
47
43
42
45
48
52
47
50
29
49
13
16
27
20
21
10
3
8
48
48
54
61
63
63
61
56
52
123
123
50
47
45
43
44
42
43
15
3
142
149
118
27
8
8
36
193
174
60
45
42
25
3
3
30
197
152
66
8
19
140
215
168
65
58
47
43
42
45
48
48
45
50
27
15
48
35
43
74
25
9
4
13
78
32
55
61
62
63
63
58
52
123
124
54
53
52
49
53
53
50
21
24
140
129
74
15
9
9
109
186
78
52
44
12
5
5
119
177
104
57
10
6
70
169
144
64
63
57
53
48
45
50
52
50
47
40
50
14
37
31
49
39
15
9
5
5
91
62
47
52
54
52
52
53
52
123
126
56
56
55
52
48
50
51
14
46
135
133
58
7
7
8
149
126
63
56
17
8
33
126
169
86
54
56
6
17
11
27
25
34
33
31
34
46
53
51
50
50
48
47
43
19
7
51
59
84
47
25
10
9
101
64
44
45
48
50
53
51
50
125
123
53
55
55
54
53
53
48
8
47
137
126
72
6
4
47
140
82
56
40
9
28
185
157
65
15
52
47
12
35
74
59
70
26
8
7
8
8
9
39
47
48
44
40
40
32
6
128
91
74
19
34
12
13
39
62
53
51
52
51
51
50
48
123
123
44
45
48
52
59
63
48
10
50
104
91
44
8
6
41
104
48
47
25
8
121
63
23
32
69
72
39
31
67
152
144
160
160
170
162
159
36
26
28
36
36
35
35
36
37
4
37
103
98
65
31
9
10
50
81
51
48
44
44
45
47
48
121
120
41
41
45
52
56
56
50
8
49
109
110
49
6
5
43
98
37
37
43
5
62
12
13
11
8
8
8
9
9
22
34
91
95
105
104
37
9
92
62
39
40
44
44
45
44
4
48
128
123
73
20
12
10
91
83
52
51
50
52
56
61
58
126
120
45
47
50
51
52
55
42
21
56
121
105
85
21
7
25
78
36
42
41
29
109
76
73
73
65
60
73
52
9
21
27
58
21
21
8
3
28
147
104
44
47
54
55
54
26
5
56
131
107
41
13
8
8
152
97
53
50
51
52
57
60
62
129
121
47
47
48
46
45
45
50
23
30
89
84
47
15
8
8
76
40
49
45
48
86
102
116
111
104
146
182
166
55
40
37
53
45
47
5
29
212
201
72
55
62
63
63
58
21
8
116
143
120
60
21
8
6
98
83
53
53
51
53
55
56
60
129
119
45
47
47
45
46
47
45
14
21
69
89
89
41
13
10
36
28
48
43
39
42
44
45
44
47
47
48
21
4
52
159
116
42
3
28
212
212
96
60
58
57
61
63
62
23
31
176
164
144
67
14
10
11
139
114
58
59
60
57
53
50
47
119
123
48
44
40
43
47
44
40
16
3
84
60
65
35
28
13
7
9
20
36
31
29
31
35
37
40
45
41
5
4
176
143
26
2
17
206
212
84
55
52
52
55
58
62
35
18
74
181
157
67
12
6
8
42
134
80
61
58
57
57
50
46
42
116
125
50
48
44
41
40
42
45
45
6
58
81
81
73
37
18
20
6
3
26
35
37
36
39
42
45
37
11
12
129
184
71
4
2
126
205
76
43
48
52
53
56
61
50
18
37
197
173
129
81
20
5
3
55
155
54
57
56
52
50
47
46
48
123
123
53
55
56
50
49
47
48
36
15
59
73
59
72
52
57
19
29
5
8
40
47
47
47
48
36
11
10
134
166
71
18
6
135
209
110
39
44
45
47
51
57
47
13
13
135
197
172
110
48
6
4
2
151
131
44
48
50
48
48
48
50
51
123
125
53
50
48
52
53
52
54
58
36
25
59
67
63
76
63
57
67
41
8
12
36
46
47
36
8
10
129
169
105
22
9
76
189
152
44
46
48
47
47
50
28
8
8
142
211
197
138
104
16
4
5
26
152
99
42
49
50
49
48
47
45
45
120
124
50
47
48
53
54
58
59
62
49
16
78
71
82
74
63
76
56
76
62
23
8
17
48
9
9
135
197
139
74
17
7
21
44
22
17
16
17
29
36
12
5
12
140
215
189
125
95
24
6
4
3
71
174
47
36
44
50
57
59
55
50
48
120
120
43
43
44
50
52
56
58
61
69
37
40
34
47
51
52
82
96
88
82
104
50
8
9
10
69
147
74
16
35
7
35
44
28
4
3
4
5
7
7
5
60
215
213
200
162
129
53
13
8
6
12
177
139
39
40
44
52
56
61
64
63
59
126
121
40
37
37
41
43
44
45
48
51
47
11
50
34
42
31
56
50
66
74
107
109
126
59
40
180
170
108
48
71
30
107
125
147
165
193
192
212
177
84
190
220
212
194
157
97
76
6
10
10
9
85
181
55
51
50
50
53
60
62
63
64
63
129
126
52
51
47
44
41
42
47
49
48
32
26
37
21
8
21
36
52
60
55
108
125
113
126
146
135
186
104
160
198
177
192
169
168
197
212
185
213
215
215
215
209
172
138
104
48
8
8
10
10
37
185
131
58
47
47
50
55
56
58
62
63
61
128
130
63
64
62
52
45
45
47
50
49
53
48
10
34
9
12
19
22
52
69
56
74
135
140
142
147
164
162
169
178
138
168
157
184
200
206
208
206
206
193
177
131
103
123
30
28
8
5
7
9
151
200
67
50
45
42
45
50
52
56
58
60
58
129
125
54
56
60
63
59
52
49
51
50
51
52
48
17
17
4
10
39
29
65
82
76
84
84
104
139
147
157
160
168
172
190
185
185
197
189
185
165
164
149
126
125
104
21
21
5
3
3
6
111
201
105
54
52
47
45
41
40
41
44
50
55
56
126
124
50
49
51
52
51
52
47
48
50
49
46
36
26
37
14
10
13
24
29
37
74
74
110
78
118
91
115
120
142
147
144
164
133
137
126
142
114
109
56
78
54
39
11
8
4
5
6
67
208
147
67
62
62
60
56
53
47
45
47
47
51
55
126
119
43
40
42
46
47
47
48
47
45
45
44
39
50
50
52
26
16
17
36
50
42
62
60
61
67
89
96
92
104
82
123
101
104
107
108
94
43
62
52
39
31
11
6
6
6
5
49
213
176
65
58
60
60
60
58
61
56
52
47
47
46
42
116
113
39
40
41
47
52
53
54
54
50
49
47
45
53
50
57
55
21
15
13
15
19
24
27
60
62
57
50
64
58
66
62
56
83
47
54
42
35
27
25
11
6
5
5
6
5
36
212
174
69
61
58
59
57
55
53
57
58
55
50
47
44
39
113
118
44
44
46
52
56
55
54
56
52
45
41
44
48
71
56
66
88
20
9
7
7
11
19
12
17
28
34
47
56
56
54
60
52
52
43
26
22
6
5
6
6
5
4
4
133
219
164
50
54
55
54
55
53
49
49
56
57
56
52
48
46
40
115
125
56
55
56
56
54
51
47
45
45
41
39
42
44
44
49
69
62
94
60
6
4
4
6
10
28
19
19
10
13
15
22
13
26
18
7
11
7
7
8
8
7
7
34
169
219
147
53
52
52
50
50
50
47
46
47
50
57
63
63
61
56
51
121
126
56
62
58
56
52
47
42
40
36
36
36
36
37
38
41
43
42
41
73
92
28
3
5
7
8
11
12
10
8
5
4
8
9
10
10
8
6
6
6
6
24
126
219
200
97
46
46
49
52
55
48
47
42
41
43
44
48
56
56
52
48
47
121
126
57
57
55
50
47
44
40
37
36
37
36
32
32
37
37
37
37
48
58
67
86
107
39
4
7
7
6
6
6
5
7
10
12
15
15
10
9
10
9
7
152
215
152
62
42
41
43
45
49
53
53
50
47
48
52
51
50
50
45
45
42
44
123
126
57
58
56
53
52
51
48
43
40
43
40
40
39
41
45
46
40
38
40
44
45
83
104
151
81
59
30
6
7
8
9
10
13
16
17
13
12
10
8
7
90
71
47
44
44
44
45
44
50
56
62
62
62
60
56
51
45
42
37
39
40
43
120
125
55
61
63
60
56
56
53
48
47
52
52
52
50
48
48
48
44
40
39
40
47
55
52
84
99
118
160
119
10
7
6
6
9
12
13
19
24
59
9
26
125
92
47
46
46
48
51
51
49
52
56
59
58
58
56
50
44
40
39
42
45
48
123
125
60
63
64
63
60
56
48
45
45
52
56
58
55
52
48
47
47
47
47
46
45
46
48
60
40
54
56
56
88
153
124
91
38
48
73
62
80
45
11
123
174
76
47
49
55
58
60
59
58
59
60
59
57
57
56
56
53
49
51
50
48
50
123
129
62
64
62
62
63
60
55
51
44
41
40
44
46
47
50
50
50
52
52
47
44
42
42
47
47
51
40
44
55
95
120
116
40
50
121
111
78
14
32
178
166
52
47
51
56
62
64
63
62
64
64
64
61
54
53
56
57
53
47
50
51
51
124
129
60
61
61
62
58
55
51
45
42
36
36
38
40
42
45
47
48
52
56
56
48
45
44
45
42
36
35
39
43
44
48
35
13
66
125
82
16
10
134
194
91
46
44
47
52
56
60
62
62
62
62
61
58
52
49
52
51
50
51
53
55
53
125
123
55
62
63
62
61
59
57
52
48
50
50
47
50
51
52
53
57
60
60
59
57
56
55
52
47
42
39
37
41
42
41
8
12
149
157
31
11
103
192
123
47
44
39
35
37
40
43
47
47
47
47
45
47
49
52
52
49
48
50
47
47
50
124
128
60
63
63
63
64
63
63
64
62
57
58
58
60
63
63
62
62
64
64
64
64
62
62
64
61
52
46
41
44
47
16
8
95
166
62
17
46
196
181
64
54
45
39
34
31
35
38
40
41
39
39
40
46
50
54
58
57
49
47
50
49
51
125
129
58
53
50
52
56
56
56
56
57
61
63
64
64
64
64
64
64
64
64
63
64
63
61
60
60
58
60
54
53
40
11
30
182
82
12
21
206
209
92
54
51
52
52
46
42
44
44
42
42
40
44
45
48
49
54
53
52
55
60
61
60
60
129
123
45
40
37
39
40
41
45
47
53
61
64
64
62
61
59
58
57
56
56
61
62
59
58
55
59
61
58
56
54
16
8
126
142
32
8
126
190
111
58
54
52
56
57
58
58
54
51
46
44
41
44
50
52
49
48
52
56
63
64
64
62
58
126
120
42
41
40
37
40
43
47
50
56
59
58
57
53
51
50
48
46
47
48
50
53
51
47
46
48
52
53
50
37
5
21
91
30
7
36
190
148
56
48
46
44
48
52
54
57
60
58
52
44
42
42
40
40
43
46
52
56
58
56
55
55
57
128
126
48
42
38
37
40
42
44
45
47
47
46
46
44
42
47
51
49
47
45
47
49
45
40
40
40
44
45
47
44
9
47
23
5
26
208
201
59
45
46
41
37
42
49
57
62
62
60
61
54
45
42
42
45
45
47
50
53
50
47
50
55
56
126
123
47
46
44
46
49
49
47
46
49
47
44
48
48
45
46
52
52
48
47
48
51
50
47
48
50
52
57
61
62
48
56
67
69
215
212
82
45
48
46
45
44
47
53
62
63
63
63
62
59
55
49
52
52
50
47
47
47
46
47
52
58
59
129
125
52
52
52
52
47
51
51
52
48
44
41
47
51
52
56
55
53
49
47
48
52
55
53
55
58
62
64
64
64
70
59
172
192
216
130
44
45
47
47
48
50
53
60
64
64
63
58
56
53
51
51
56
55
54
50
47
44
43
47
47
47
52
126
