P2
# CREATOR: GIMP PNM Filter Version 1.1
64 64
255
112
36
39
39
38
38
36
37
34
30
29
27
26
30
32
32
31
30
27
30
32
32
35
33
34
38
45
46
46
44
42
36
32
27
27
26
23
24
32
35
35
35
41
44
43
42
39
35
32
30
31
35
38
39
41
38
34
34
32
30
30
31
32
112
111
32
38
44
47
47
45
41
39
37
35
35
31
9
10
1
1
1
1
1
2
2
2
2
2
2
2
3
3
3
3
2
1
1
1
2
2
1
1
2
3
4
3
3
4
3
2
7
11
27
29
29
29
29
27
25
27
30
30
30
34
36
35
115
112
31
32
35
38
44
47
48
48
48
46
42
22
1
1
3
42
44
45
47
47
48
50
51
50
49
51
52
54
54
52
51
51
50
49
49
49
46
45
46
51
52
49
59
49
47
42
1
1
14
25
24
22
20
19
20
24
27
27
28
27
32
33
111
117
34
33
35
36
41
44
46
47
47
47
47
17
3
62
172
111
166
149
147
147
149
149
149
149
148
148
149
149
145
148
148
148
148
158
155
163
169
182
182
182
182
182
195
160
163
84
4
36
22
23
24
22
22
22
25
26
26
30
33
37
36
33
112
115
32
29
27
27
32
30
29
31
35
38
40
13
3
56
9
4
5
5
5
5
4
4
3
3
2
1
1
2
2
3
3
2
2
3
16
56
89
81
81
76
75
58
56
35
8
4
4
140
85
33
35
34
38
38
39
41
42
41
40
35
33
32
111
111
29
27
25
27
29
29
25
26
28
33
38
40
25
126
66
66
63
65
63
63
63
60
57
56
55
51
49
49
47
47
50
30
2
2
5
14
8
9
10
9
8
4
3
4
5
6
155
221
89
42
45
45
47
47
48
48
48
47
44
37
30
27
106
116
35
32
31
32
33
35
35
36
36
41
44
47
66
93
112
205
195
195
195
195
195
195
195
195
195
79
48
47
45
36
48
37
6
19
55
96
68
27
25
30
16
1
1
19
137
237
245
143
49
47
45
41
39
44
44
46
45
45
42
38
30
29
112
120
41
38
34
35
39
40
39
42
45
45
43
43
43
40
39
47
39
39
38
38
40
57
28
4
3
2
1
32
55
49
22
2
3
174
149
153
72
31
29
1
1
14
120
243
243
147
85
49
42
38
33
33
32
33
35
36
35
35
33
35
32
32
116
116
35
35
35
34
32
32
30
32
36
42
43
38
33
31
30
46
54
55
59
42
12
3
3
28
81
227
232
218
120
17
2
20
136
195
166
84
9
5
4
5
130
245
243
137
37
38
32
32
32
34
30
30
31
34
37
37
32
30
27
30
32
31
111
115
35
35
35
34
30
28
27
27
31
35
35
30
24
22
21
22
24
16
4
1
1
56
237
239
237
221
117
14
1
16
86
189
106
55
24
9
9
33
145
212
199
9
5
22
39
35
32
32
32
33
31
29
30
33
38
37
34
31
29
27
27
25
106
112
33
32
30
30
29
30
30
33
38
38
35
35
30
25
22
23
9
1
1
21
243
245
237
221
66
1
1
9
89
199
104
92
22
8
6
45
170
240
212
115
126
93
17
3
5
28
35
38
39
41
39
36
35
35
35
33
30
26
25
25
24
25
110
115
38
38
35
37
36
34
35
36
38
44
44
46
42
35
30
4
1
8
134
250
240
212
57
2
2
16
92
204
180
118
21
13
3
3
155
245
204
126
94
112
98
104
100
66
3
3
24
37
39
40
38
39
39
41
38
33
29
24
21
24
26
30
111
117
38
36
35
32
30
33
34
36
39
41
42
43
42
43
9
3
21
234
245
223
79
3
3
20
130
218
141
66
25
24
4
3
3
51
176
85
49
34
57
84
82
93
82
61
72
17
3
22
35
34
35
38
39
39
35
34
30
24
24
28
33
33
112
123
43
41
39
35
31
33
35
38
44
45
46
47
47
13
7
32
243
227
187
72
4
19
128
199
174
82
31
8
35
60
8
16
14
13
3
2
1
1
0
5
11
22
67
75
65
42
5
2
21
37
38
34
32
31
29
32
32
32
30
30
32
33
116
123
43
43
42
38
35
32
32
36
42
47
47
48
13
6
28
240
232
195
149
5
17
193
112
35
14
17
44
54
89
78
38
55
110
172
183
93
39
46
43
43
2
3
44
43
51
47
41
9
3
22
34
30
26
25
30
37
42
42
37
32
32
35
117
116
37
40
39
36
35
32
31
31
35
39
47
32
5
27
234
227
186
159
118
5
25
11
3
2
14
7
2
2
2
3
3
15
57
137
109
137
116
148
148
134
50
32
32
42
97
58
47
23
4
3
22
29
32
35
36
36
35
37
38
38
38
40
122
115
35
34
32
30
30
32
34
37
38
37
33
3
9
192
226
176
130
101
38
34
49
51
46
54
19
2
3
2
2
1
2
3
3
11
48
68
74
30
109
14
6
100
85
43
45
42
30
20
11
2
3
26
30
35
35
34
31
30
32
34
35
37
117
115
32
32
31
29
30
34
35
35
33
31
5
2
120
215
186
111
55
44
14
4
23
52
148
187
164
180
195
195
204
159
25
3
17
104
27
14
17
33
15
7
35
201
105
44
42
39
51
22
13
1
2
7
19
24
28
29
25
25
23
23
24
27
109
117
38
38
35
37
40
42
39
39
38
23
3
22
210
180
158
120
55
3
2
3
3
3
3
2
1
1
14
51
54
49
47
35
117
97
24
37
40
4
3
91
239
136
14
20
34
33
17
20
6
11
5
6
19
20
22
25
25
27
30
29
28
29
111
117
36
38
40
41
40
42
42
44
42
8
3
148
204
169
103
8
8
2
3
2
2
2
2
61
130
227
216
209
223
117
6
24
141
147
50
13
2
3
101
199
52
3
6
5
17
34
15
29
9
7
2
14
15
27
27
27
29
27
28
31
35
35
115
115
32
32
32
32
32
33
31
33
22
3
36
199
170
117
78
14
8
5
4
3
4
63
245
234
193
137
48
44
8
3
5
182
187
55
5
3
42
245
183
63
3
4
5
9
21
33
51
36
14
4
5
9
9
35
35
35
34
32
30
32
37
39
117
120
42
38
34
35
32
30
29
31
13
3
134
177
136
63
13
4
3
4
5
30
245
245
148
60
59
49
24
3
2
20
210
141
42
3
3
134
248
240
77
89
79
15
8
8
13
22
37
35
33
18
4
6
41
26
37
37
40
38
35
36
40
39
117
117
36
38
38
38
38
35
35
36
6
18
186
163
135
75
6
4
3
3
130
250
186
88
48
48
48
22
6
4
93
187
86
11
3
22
137
243
172
66
39
54
75
83
25
8
9
24
27
26
30
16
4
3
35
22
35
38
38
39
38
38
38
36
116
112
33
38
41
41
38
38
41
35
5
46
153
143
56
6
4
4
3
136
240
148
49
38
39
42
10
5
4
111
169
61
4
2
19
229
248
143
33
33
39
52
56
60
41
47
9
16
27
69
38
20
3
2
15
20
28
33
36
38
39
38
36
34
111
116
35
36
35
34
32
32
32
12
2
131
163
130
52
5
3
3
58
226
140
38
34
33
21
6
2
19
212
186
56
5
4
130
245
223
79
32
28
27
30
33
36
32
35
17
34
6
8
15
10
11
4
1
3
33
33
38
45
47
47
45
41
37
115
115
35
32
30
28
29
27
28
7
1
140
149
109
15
3
3
22
210
183
44
30
27
14
1
1
17
216
153
50
3
9
137
243
174
49
42
32
28
27
30
33
33
30
35
15
7
33
22
28
59
14
4
1
6
63
19
39
45
47
47
47
42
37
115
116
38
38
36
34
38
38
35
11
13
137
123
59
7
4
4
98
201
63
37
29
5
2
2
110
187
93
42
4
2
54
176
143
48
47
42
38
33
30
35
36
35
32
26
35
6
24
18
34
25
7
3
2
2
77
47
32
36
38
37
36
38
36
115
120
41
41
39
36
33
35
35
6
31
131
128
42
3
3
3
149
118
47
41
8
3
20
120
176
72
38
41
2
8
5
15
14
20
20
19
20
31
38
35
35
35
33
32
28
10
3
35
43
70
32
14
4
3
88
48
30
30
33
35
38
35
35
117
115
38
39
39
38
38
38
33
3
32
134
120
56
2
1
32
137
67
41
25
3
16
199
160
49
7
37
32
5
22
59
43
54
14
3
3
3
3
3
25
32
33
29
26
26
19
2
122
77
59
9
21
5
6
25
47
38
35
37
35
35
35
33
115
115
30
30
33
37
43
47
33
4
35
93
77
29
3
2
27
93
33
32
14
3
112
47
13
19
54
56
25
18
52
153
143
164
164
177
166
163
22
14
16
22
22
22
22
22
24
1
23
91
85
49
18
3
4
35
66
35
33
30
30
30
32
33
112
111
27
27
30
36
41
41
35
3
34
98
100
34
2
2
28
85
24
24
28
2
47
5
6
5
3
3
3
3
4
12
20
77
82
94
93
24
3
79
47
25
26
29
29
30
29
1
33
122
115
57
10
5
4
78
69
36
35
35
36
41
45
42
120
111
30
32
35
35
36
39
27
11
41
112
94
71
11
3
14
63
22
27
27
17
98
61
57
57
49
44
57
36
4
11
15
42
11
11
3
1
16
147
92
29
32
38
39
38
14
2
41
126
96
27
6
3
3
153
84
38
35
35
36
42
44
46
123
112
32
32
33
31
30
30
35
12
17
75
70
32
7
3
3
61
25
34
30
33
72
89
106
101
93
145
195
172
39
26
24
38
30
32
2
17
239
223
56
39
46
47
47
42
11
3
106
141
111
44
11
3
2
85
69
38
38
35
38
39
41
44
123
110
30
32
32
30
31
32
30
6
11
54
75
75
27
6
4
22
16
33
28
25
27
29
30
30
32
32
33
11
1
36
163
106
27
1
16
239
239
83
44
42
42
45
47
47
13
19
186
169
143
51
6
4
5
136
104
42
43
44
42
38
35
32
110
115
33
29
25
28
32
30
26
8
1
70
44
49
22
16
6
3
4
10
22
18
17
18
22
23
26
30
27
2
1
186
141
15
1
8
229
239
70
39
37
37
39
42
46
22
9
59
193
160
52
5
2
3
27
130
65
45
42
42
42
35
31
27
106
117
35
33
29
27
26
27
30
30
2
42
66
66
57
23
9
10
2
1
15
22
23
22
25
27
30
24
5
5
123
198
55
1
0
118
227
61
28
33
36
38
41
45
35
9
24
216
182
123
66
10
2
1
39
158
38
42
41
37
35
32
31
33
115
115
38
39
40
35
34
32
33
22
7
43
57
43
56
36
42
9
17
2
3
25
32
32
32
33
22
5
4
130
172
55
9
2
131
234
100
25
30
30
32
35
42
32
6
6
131
216
180
100
33
2
1
0
152
126
29
33
35
33
33
33
35
35
115
117
38
35
33
36
38
37
38
42
22
14
43
51
47
61
47
42
52
27
3
5
22
31
32
22
3
4
123
176
94
12
3
61
204
153
30
31
33
32
32
35
16
3
3
140
237
216
135
92
8
1
2
15
153
86
27
34
35
34
33
32
30
30
111
116
35
32
33
38
38
42
43
47
34
8
63
55
67
59
47
61
41
61
46
12
3
8
33
4
3
131
216
136
59
8
3
11
30
12
8
8
8
17
22
5
2
5
137
243
204
117
82
13
2
1
1
55
183
32
22
29
35
42
43
39
35
33
111
111
28
28
29
35
37
40
42
45
54
24
25
21
32
35
36
68
83
74
68
92
35
3
3
4
54
147
59
8
22
3
22
30
16
1
1
1
2
3
3
2
44
243
240
221
166
123
38
6
3
2
5
187
136
25
26
30
36
41
45
48
47
43
118
112
26
24
24
27
28
29
30
33
35
32
5
35
21
27
19
40
35
50
59
96
98
118
43
26
192
177
97
33
55
17
96
117
147
170
210
209
239
187
70
205
250
239
212
160
84
61
2
4
4
3
71
193
39
35
35
35
38
44
46
47
48
47
123
120
37
35
32
30
27
27
32
34
33
19
15
24
11
3
11
22
36
44
39
97
117
103
118
145
131
201
93
164
218
187
209
176
174
216
239
199
240
243
243
243
234
180
135
92
33
3
3
4
4
24
199
126
42
32
32
35
39
40
42
47
47
45
122
125
47
48
46
37
30
30
32
35
34
38
33
4
20
3
5
9
12
36
54
41
59
131
137
140
147
169
166
176
189
135
174
160
198
221
229
232
229
229
210
187
126
91
115
17
16
3
2
3
3
152
221
52
35
30
27
30
35
36
40
42
44
42
123
117
38
41
44
47
43
36
34
35
35
35
36
33
8
8
1
4
25
17
49
67
61
70
70
92
136
147
160
164
174
180
205
199
199
216
204
199
170
169
149
120
117
93
11
11
2
1
1
2
101
223
94
38
36
32
30
27
26
27
30
35
39
41
118
116
35
34
35
37
35
36
32
33
35
34
31
22
14
24
6
4
6
13
17
23
59
58
100
63
109
78
105
111
140
147
143
169
128
134
118
140
104
98
41
63
38
25
5
3
1
2
2
52
232
147
51
47
46
44
41
38
32
30
32
32
35
39
118
110
28
26
27
31
32
32
33
32
30
30
29
25
35
35
37
14
8
8
22
35
27
46
44
45
52
75
83
79
92
68
115
88
93
96
97
81
28
46
36
25
18
5
2
2
2
2
34
240
186
49
42
44
44
44
42
45
41
36
32
32
31
27
106
103
25
26
27
32
36
38
38
38
35
34
32
30
38
35
42
39
11
7
6
7
9
13
15
44
46
42
35
48
42
50
47
40
69
32
38
27
22
15
14
5
2
2
2
2
2
22
239
183
54
45
42
43
42
39
38
42
42
39
35
32
29
25
103
109
29
29
31
36
40
39
38
40
36
30
27
29
33
55
41
50
74
10
4
3
3
5
9
5
8
16
21
32
41
40
38
44
36
36
28
15
12
2
2
2
2
2
1
1
128
248
169
35
38
39
38
39
38
34
34
40
42
41
37
33
31
26
105
117
40
39
40
40
38
35
32
30
30
27
25
27
29
30
34
54
47
81
44
2
1
1
2
4
16
9
9
4
6
7
12
6
14
9
3
5
3
3
3
3
3
3
21
176
248
147
38
36
36
35
35
35
32
31
32
35
42
47
47
45
40
35
112
118
41
46
42
40
36
32
27
25
22
22
22
22
23
24
27
28
27
27
57
79
16
1
2
3
3
5
5
4
3
2
1
3
3
4
4
3
2
2
2
2
13
120
248
221
84
31
31
34
36
39
33
32
27
27
28
30
33
40
40
37
33
32
112
120
42
42
39
35
32
29
26
24
22
23
22
19
19
23
24
24
23
33
42
52
72
96
25
1
3
3
2
2
2
2
3
4
5
7
7
4
4
4
3
3
153
243
153
46
27
27
28
30
34
38
38
35
32
33
36
35
35
35
30
30
27
30
115
118
42
42
41
38
36
35
33
28
26
28
26
25
25
27
30
31
26
24
26
30
30
69
92
152
66
43
17
2
3
3
3
4
6
8
8
6
5
4
3
3
76
55
32
29
29
30
30
30
35
40
46
47
47
44
41
35
30
27
24
25
25
28
111
117
39
45
47
44
40
41
38
33
32
36
37
37
35
33
33
33
30
26
25
25
32
39
36
70
86
109
164
110
4
3
2
2
4
5
6
9
13
43
3
15
117
79
32
31
31
33
35
35
34
36
41
43
42
42
41
35
29
25
25
27
30
33
115
117
44
47
48
47
44
40
33
30
30
36
41
42
39
36
33
32
32
32
32
31
30
31
33
44
26
38
40
40
74
155
116
77
24
33
57
46
65
30
5
115
183
61
32
34
39
42
44
43
42
43
44
43
42
42
41
41
38
34
35
35
33
35
115
123
47
48
46
46
47
44
39
35
29
27
26
29
31
32
35
35
35
37
36
32
29
27
27
32
32
35
25
29
39
82
111
106
25
35
112
101
63
6
19
189
172
36
32
35
41
46
48
47
47
48
48
48
45
38
38
40
42
38
32
35
35
35
116
123
44
45
45
46
42
39
35
30
27
22
22
24
26
27
30
32
33
36
41
40
33
30
29
30
27
22
22
25
28
29
33
22
6
50
117
68
8
4
130
212
77
31
29
32
36
40
44
47
46
46
46
45
42
37
34
36
35
35
35
38
39
38
117
115
39
46
47
47
45
43
42
36
33
35
35
32
35
35
36
38
42
44
44
43
42
40
39
36
32
27
25
23
27
27
27
3
5
149
160
18
5
91
209
115
32
29
25
22
23
26
28
32
32
32
32
30
32
34
36
36
34
33
35
32
32
35
116
122
44
47
47
47
48
47
47
48
46
42
42
42
44
47
47
46
46
48
48
48
48
46
47
48
45
36
31
27
29
32
8
3
82
172
46
8
31
215
193
48
38
30
25
21
19
22
24
25
27
25
25
26
31
35
38
42
42
34
32
35
34
35
117
123
42
38
35
36
40
41
41
41
42
45
47
48
48
48
48
48
48
48
48
47
48
47
45
44
44
42
44
38
38
26
5
17
195
67
5
11
229
234
79
38
35
36
36
31
27
29
30
27
27
26
29
30
33
34
38
38
37
39
44
45
44
44
123
115
30
26
23
25
25
27
30
32
38
45
48
48
47
45
43
42
42
40
41
45
46
43
42
39
43
45
42
41
38
8
3
118
140
19
3
120
205
101
42
38
36
40
42
42
42
38
35
31
29
27
30
35
36
34
33
37
41
47
48
48
46
42
120
111
27
27
25
24
26
28
32
35
41
43
42
42
38
35
35
33
31
32
33
35
38
35
32
31
33
36
38
35
24
2
11
78
17
3
22
205
148
41
33
31
30
33
37
38
42
44
42
36
29
27
27
26
26
28
31
36
41
42
41
39
39
42
122
118
33
27
24
24
25
27
30
30
32
32
31
31
30
27
32
35
34
32
30
32
34
30
26
25
25
29
30
32
29
4
32
12
2
15
232
223
43
30
31
27
24
27
34
42
47
46
44
45
38
30
27
27
30
30
32
35
38
35
32
35
39
41
120
115
32
31
30
31
34
34
32
31
34
32
30
33
33
30
31
36
37
33
32
33
35
35
32
33
35
36
42
45
46
33
41
52
54
243
239
67
30
33
31
30
29
32
38
46
47
47
47
46
43
39
34
37
36
35
32
32
32
31
32
36
42
43
123
117
37
36
37
36
32
35
35
37
33
29
27
32
35
37
40
39
38
34
32
33
37
39
38
39
42
47
48
48
48
54
43
180
209
245
125
29
30
32
32
33
35
38
44
48
48
47
42
41
38
35
35
40
39
38
35
32
30
28
32
32
32
36
120
