P2
# CREATOR: GIMP PNM Filter Version 1.1
64 64
255
156
79
83
83
82
81
79
80
76
71
69
67
65
71
74
74
72
70
67
70
73
74
77
75
76
82
90
91
91
89
86
79
73
67
66
65
60
62
73
77
77
78
85
89
88
86
83
77
74
70
72
77
81
83
85
82
76
76
74
71
70
72
73
156
155
74
81
89
93
93
90
85
83
80
77
77
72
35
37
11
10
10
10
11
15
14
14
12
12
14
15
16
19
18
16
13
11
9
11
12
12
10
11
14
19
21
19
18
21
19
14
29
38
66
69
69
69
69
66
63
66
70
71
71
76
79
77
158
156
72
73
77
81
89
93
94
94
94
91
87
58
11
9
17
87
89
90
92
92
94
96
97
96
95
97
98
100
100
98
97
97
96
95
95
95
91
90
91
97
98
95
106
95
92
87
7
7
44
63
61
59
56
53
56
61
66
67
68
67
74
75
155
160
76
75
77
79
85
89
91
92
92
93
93
50
18
109
201
155
197
185
183
183
185
185
185
185
184
184
185
185
182
184
184
184
184
191
189
195
199
208
208
208
208
208
217
193
195
131
21
79
59
60
61
59
58
59
64
65
65
71
75
80
79
75
156
158
73
69
66
66
73
71
69
72
78
82
84
42
17
103
35
20
23
24
24
23
21
22
18
16
13
11
11
13
14
17
17
14
14
18
48
103
136
128
128
123
122
105
103
77
32
21
22
178
132
75
78
76
81
82
83
85
86
85
84
78
75
74
155
155
69
67
64
66
69
69
64
65
68
75
82
84
63
167
113
113
110
112
110
110
110
107
104
103
102
97
95
95
93
93
96
70
15
12
23
45
31
35
37
35
33
21
16
20
25
26
189
234
136
87
90
90
93
93
94
94
94
93
89
80
71
66
151
159
77
73
72
73
75
77
78
79
79
85
89
92
113
139
156
224
217
217
217
217
217
217
217
217
217
126
94
92
90
79
94
80
26
54
102
142
115
66
64
70
48
8
11
54
176
244
249
180
95
93
90
85
83
89
89
91
90
90
87
81
71
69
156
162
85
81
76
78
83
84
83
87
90
90
88
88
88
84
83
93
83
83
81
81
84
104
68
21
17
13
11
73
102
95
58
15
17
203
185
188
119
72
69
9
8
44
162
248
248
183
132
95
87
82
75
75
73
75
77
79
78
78
75
77
73
73
159
159
78
77
77
76
74
73
71
73
79
87
88
82
75
72
71
91
100
102
106
87
40
19
17
68
128
238
241
232
162
50
14
55
175
217
197
131
35
25
21
25
170
249
248
176
80
82
73
73
74
76
71
71
72
76
80
80
73
71
67
71
73
72
155
158
77
77
78
76
71
68
67
67
72
77
77
71
62
59
57
58
61
48
21
11
11
103
244
245
244
234
160
44
11
48
133
213
151
102
61
35
35
75
182
228
220
35
23
58
83
77
74
73
74
75
72
69
71
75
81
80
76
72
69
67
66
64
151
156
75
74
71
70
69
70
71
75
81
81
77
77
71
63
59
60
35
7
7
57
248
249
244
234
113
7
8
34
136
220
149
138
59
33
26
90
200
246
228
158
167
139
50
19
25
68
77
81
83
85
83
79
77
78
77
75
71
65
64
64
61
63
154
158
81
81
77
80
79
76
77
79
81
89
89
91
86
77
71
22
10
33
173
252
246
228
104
15
13
49
138
223
207
161
57
42
19
19
189
249
223
167
140
156
144
149
145
113
19
19
61
80
83
84
81
83
83
85
82
75
69
62
57
62
65
71
155
160
81
79
77
74
71
75
76
79
83
85
87
88
86
88
35
19
57
242
249
235
126
17
17
56
170
232
179
113
63
61
21
16
17
97
204
132
95
76
104
131
129
139
129
108
119
50
17
59
77
76
78
81
83
83
77
76
70
61
62
68
75
75
156
165
88
85
83
77
72
75
77
82
89
90
91
92
93
42
29
74
248
238
212
119
20
54
169
220
203
129
72
33
77
107
32
49
44
42
16
15
11
8
6
23
39
59
114
122
112
86
25
15
57
80
81
76
74
72
69
73
73
73
71
70
73
75
159
165
88
88
87
82
77
73
73
79
87
92
93
94
42
27
68
246
241
217
185
23
50
216
156
77
44
51
89
101
136
125
81
102
154
201
209
139
83
91
88
88
13
16
89
88
97
93
85
34
18
59
76
71
65
63
71
80
86
86
80
74
73
77
160
159
80
84
83
79
77
73
72
72
77
83
92
74
25
67
242
238
211
192
161
24
63
39
16
14
44
30
14
13
12
16
19
47
104
176
153
176
159
184
184
173
96
74
73
87
143
105
93
60
20
19
58
69
73
77
79
79
78
80
81
81
82
84
164
158
77
76
74
71
71
73
76
80
81
80
75
19
35
215
237
204
170
146
81
76
95
97
91
100
54
14
17
14
15
10
13
17
17
38
94
115
121
70
153
44
27
145
132
88
90
86
71
56
38
14
17
65
71
77
77
76
72
71
74
76
78
80
160
158
73
73
72
69
71
76
78
77
75
72
23
12
162
230
211
155
102
89
44
21
60
98
184
212
196
207
217
217
223
192
64
16
51
149
66
44
50
75
47
29
78
221
150
89
87
83
97
58
43
8
13
30
53
61
68
69
64
63
60
60
61
66
153
160
82
81
78
80
84
86
83
83
81
60
16
59
227
207
191
162
102
19
13
17
19
19
17
13
11
8
45
97
100
95
93
77
160
143
62
80
84
20
18
137
245
175
44
55
76
75
50
55
28
38
25
26
54
55
58
63
63
67
70
69
68
69
155
160
79
82
84
85
84
87
87
89
87
33
18
184
223
199
148
31
33
13
17
14
13
13
14
108
170
238
231
226
235
160
28
61
179
183
96
43
15
16
146
220
98
18
27
23
50
76
47
69
35
29
13
44
47
67
67
67
69
67
68
72
77
77
158
158
73
73
73
74
74
75
72
75
58
16
79
220
200
160
125
44
31
23
22
18
22
110
249
242
216
176
94
89
31
17
25
208
212
102
23
17
87
249
209
110
18
20
23
35
57
75
97
79
44
22
23
35
35
78
78
77
76
73
71
74
80
83
160
162
86
81
76
77
74
70
69
72
43
19
173
205
175
110
43
21
18
20
24
70
249
249
184
107
106
95
62
16
14
55
227
179
86
19
19
173
251
246
124
136
126
47
32
32
42
59
80
78
75
52
20
27
85
65
80
80
84
82
78
79
84
83
160
160
79
82
81
81
81
77
77
79
26
52
211
195
174
122
26
21
19
17
170
252
211
135
94
94
94
59
26
21
139
212
133
38
18
58
176
248
201
113
83
100
122
130
63
31
34
62
67
65
70
48
21
18
78
58
78
81
82
83
81
82
82
79
159
156
75
81
85
85
82
81
85
78
23
91
188
180
103
26
21
21
17
175
246
184
95
82
83
86
37
23
21
155
199
108
21
14
53
239
251
180
75
75
83
98
103
107
85
92
34
48
67
116
81
56
19
14
46
55
68
75
79
81
83
81
79
76
155
159
78
79
78
76
73
73
74
40
14
171
195
170
98
25
17
16
105
237
178
81
76
75
57
28
14
53
228
211
103
24
20
170
249
235
126
73
68
67
71
75
79
74
77
50
76
26
31
47
37
39
21
8
17
75
75
82
90
93
93
90
85
80
158
158
77
73
71
68
69
67
68
30
9
178
185
153
47
18
18
59
227
209
89
71
67
44
9
9
51
231
188
96
18
35
176
248
203
95
87
74
68
67
71
75
75
71
77
47
29
75
58
68
106
44
20
11
26
110
54
83
90
92
93
93
87
80
158
159
82
81
79
76
81
81
77
39
43
176
165
106
29
20
20
144
221
110
80
69
25
12
13
154
212
139
86
22
15
101
204
180
94
93
86
81
75
71
77
79
77
73
65
77
28
61
52
76
63
30
19
12
13
124
92
73
79
82
80
79
81
79
158
162
85
85
83
79
75
77
78
28
72
171
169
87
16
16
17
185
161
93
85
33
17
55
162
204
119
82
85
14
32
23
47
44
56
55
53
56
72
81
78
77
77
75
73
68
36
16
78
88
117
73
44
21
19
135
94
70
71
75
77
81
78
77
160
158
81
83
83
82
81
81
75
18
73
173
162
103
14
11
74
176
114
85
64
19
49
220
193
95
29
80
74
25
58
106
88
101
45
17
16
18
17
19
63
74
75
69
65
65
54
14
164
124
106
35
57
25
26
63
92
81
78
80
78
78
77
75
158
158
70
71
75
80
88
93
75
22
77
139
124
69
17
14
66
139
75
73
44
18
156
93
42
54
100
103
63
52
98
188
180
196
196
205
197
195
59
45
48
59
59
58
58
59
61
11
60
137
132
95
52
19
21
77
113
78
75
70
70
71
73
75
156
155
66
66
71
79
85
85
77
18
76
144
145
76
14
12
68
132
61
61
68
12
92
24
27
23
18
17
17
19
20
40
56
124
129
140
139
61
19
126
92
63
65
69
69
71
69
10
75
164
158
104
37
24
21
125
116
79
78
77
79
85
90
87
162
155
71
74
77
78
79
83
67
38
85
156
140
118
39
16
44
110
59
67
66
50
144
108
104
104
95
89
104
79
20
38
47
87
39
39
18
8
48
183
138
69
74
82
83
82
45
13
85
167
142
66
26
18
18
188
131
81
77
78
79
86
89
91
165
156
73
73
75
72
71
71
77
41
51
122
117
74
30
17
17
108
64
76
71
75
119
136
151
146
139
182
217
201
83
65
61
81
71
73
13
50
245
235
103
83
91
93
93
87
38
17
151
179
155
89
39
18
15
132
116
81
81
78
81
83
85
89
165
154
71
73
73
71
72
73
71
28
39
100
122
122
66
26
21
59
49
75
68
63
67
69
71
70
73
74
75
39
10
79
195
151
67
9
48
245
245
130
89
87
86
90
93
92
42
53
211
199
180
97
28
21
23
175
149
87
88
89
86
81
77
74
154
158
75
69
64
68
73
70
65
31
8
117
89
95
58
48
26
16
20
37
59
52
50
52
58
60
65
71
66
13
11
211
179
46
7
32
239
245
117
83
80
80
83
87
91
58
34
106
216
193
98
24
15
17
67
170
112
90
87
86
86
77
72
67
151
160
77
75
69
66
65
67
71
71
14
87
113
113
104
60
34
37
14
9
46
58
60
59
63
67
71
61
23
24
165
219
102
10
5
161
238
108
68
75
79
81
85
90
77
34
61
231
208
165
113
37
13
8
83
191
82
86
85
80
77
74
72
75
158
158
81
83
84
77
76
73
75
59
29
88
104
88
103
79
86
35
50
13
17
64
74
73
73
75
59
23
22
170
201
102
34
14
171
242
145
63
70
71
73
78
86
73
26
26
171
231
207
145
75
14
10
6
187
167
69
75
77
75
75
75
77
78
158
160
81
77
75
79
81
80
82
87
59
44
88
97
93
108
93
86
98
66
17
24
59
72
74
59
17
21
165
204
140
40
19
108
223
188
70
72
75
73
73
77
48
18
18
178
244
231
174
138
31
11
13
46
188
133
67
76
77
76
75
74
71
71
155
159
77
73
75
81
82
87
88
92
76
31
110
102
114
106
93
108
85
108
91
41
17
33
75
20
19
171
231
175
106
32
16
38
70
40
32
31
33
50
59
25
12
25
176
248
223
160
129
43
14
11
9
102
209
73
59
69
77
86
88
83
77
75
155
155
68
68
69
77
80
84
87
90
100
61
64
57
74
78
79
115
130
121
115
138
77
17
19
21
100
183
106
31
58
16
58
70
48
10
8
10
12
16
16
13
89
248
246
234
197
165
81
26
17
14
25
212
175
63
65
70
79
85
90
94
93
88
161
156
65
61
61
66
68
69
71
75
78
73
23
77
57
67
53
84
77
96
106
142
144
161
88
65
215
205
143
75
102
51
142
160
183
200
227
226
245
212
117
224
252
245
228
193
131
108
15
21
21
19
118
216
83
78
77
77
81
89
91
93
94
93
165
162
80
78
74
70
66
67
73
76
75
54
46
61
38
17
38
59
79
89
83
143
160
148
161
182
171
221
139
196
232
212
226
204
203
231
245
220
246
248
248
248
242
207
174
138
75
18
17
21
22
61
220
167
87
74
73
77
83
84
87
92
93
90
164
166
93
94
91
80
71
71
73
77
76
81
75
21
56
19
25
35
40
79
100
85
106
171
176
178
183
199
197
204
213
174
203
193
219
234
239
241
239
239
227
212
167
137
158
51
48
17
12
16
19
187
234
98
77
71
67
71
77
79
84
87
89
87
165
160
82
85
89
93
88
79
76
78
77
78
79
75
32
32
10
21
63
50
95
114
108
117
117
138
175
183
193
196
203
207
224
220
220
231
223
220
200
199
185
162
160
139
39
38
13
8
9
14
146
235
140
82
79
74
71
66
65
66
70
77
83
85
161
159
77
76
78
80
78
79
74
75
77
76
72
59
45
61
28
22
26
43
50
60
106
105
145
110
153
125
150
155
178
183
180
199
169
173
161
178
149
144
85
110
82
63
23
17
11
12
14
98
241
183
97
92
91
89
85
81
74
71
73
73
78
83
161
154
68
65
67
72
74
73
75
73
71
71
69
63
77
77
80
45
31
32
59
77
67
91
89
90
98
122
130
126
138
115
158
135
139
142
143
128
68
91
79
63
52
23
14
14
14
12
76
246
211
95
87
89
89
89
87
90
85
79
73
74
72
67
151
148
63
65
66
74
79
81
82
82
77
76
73
71
81
77
86
83
39
29
26
30
35
43
47
89
91
86
77
94
87
96
92
84
116
74
82
67
58
47
44
23
14
13
13
14
13
59
245
209
100
90
87
88
86
83
81
86
87
83
77
73
69
63
148
153
69
69
72
79
84
83
82
84
79
71
66
69
75
102
85
96
121
37
20
16
16
23
35
25
33
48
57
73
85
84
82
89
79
79
68
46
40
14
13
14
14
12
10
11
169
251
199
77
82
83
82
83
81
76
76
84
86
85
80
75
72
65
150
160
84
83
84
84
82
78
73
71
71
66
63
67
69
70
76
100
92
128
89
14
11
11
14
21
48
35
35
22
26
29
40
26
45
34
16
23
16
16
17
17
16
16
57
204
251
183
81
79
79
77
77
77
74
72
73
77
86
93
93
90
84
78
156
161
85
91
87
84
79
74
67
64
59
59
59
59
60
62
66
68
67
66
104
126
49
8
12
16
18
23
24
21
18
12
11
17
19
21
21
17
14
14
15
15
43
162
251
234
131
72
72
76
79
83
75
73
67
66
68
70
75
84
84
80
75
73
156
162
86
86
83
77
73
69
65
61
59
60
59
54
54
60
61
61
60
75
87
98
119
142
63
11
16
16
15
14
14
13
16
21
25
29
29
22
20
21
19
16
188
248
188
91
67
66
68
71
76
81
81
77
74
75
79
78
77
77
71
71
67
70
158
161
86
87
85
81
79
78
75
68
65
68
65
64
63
66
71
72
65
62
65
70
71
116
138
187
113
88
51
15
16
18
19
21
26
31
32
27
24
22
18
16
123
102
73
69
69
70
71
70
77
84
91
92
92
89
85
78
71
67
61
63
64
68
155
160
83
90
93
89
84
85
81
75
73
79
80
80
77
75
75
75
70
65
63
64
73
83
79
117
133
153
196
154
21
16
14
15
20
25
26
35
43
88
19
46
160
126
74
72
72
75
78
78
76
79
85
88
87
87
85
77
69
64
63
67
71
75
158
160
89
93
94
93
89
84
75
71
71
79
85
87
83
79
75
74
73
74
74
72
71
72
75
89
65
82
84
84
121
189
159
124
62
75
104
91
112
71
23
158
209
108
73
76
83
87
89
88
87
88
89
88
86
86
85
85
81
76
78
77
75
77
158
165
92
94
91
91
93
89
83
78
69
66
65
69
72
73
77
77
77
80
79
73
69
67
67
73
74
78
64
69
83
129
155
151
64
77
156
146
110
28
54
213
201
79
73
78
85
91
94
93
92
94
94
94
90
82
81
84
86
81
74
77
78
78
159
165
89
90
90
91
87
83
78
71
67
59
59
62
65
67
71
73
75
79
85
84
75
71
69
71
67
59
58
63
68
69
75
58
27
96
160
115
31
22
170
228
124
72
69
73
79
84
89
92
91
91
91
90
87
80
76
79
78
77
78
81
83
81
160
158
83
91
93
92
90
88
86
79
75
77
77
73
77
78
79
81
86
89
89
88
86
84
83
79
73
67
63
60
66
67
66
17
24
185
193
52
23
137
226
158
74
69
63
58
60
65
68
73
73
73
74
71
73
76
79
79
76
75
77
74
73
77
159
164
89
93
93
93
94
93
93
94
91
86
87
87
89
93
93
91
91
94
94
94
94
91
92
94
90
79
72
66
69
74
31
18
129
201
91
32
72
230
216
94
82
71
63
57
53
58
62
64
66
63
63
65
72
77
82
87
86
76
74
77
76
78
160
165
87
81
77
79
84
85
85
85
86
90
93
94
94
94
94
94
94
94
94
93
94
93
90
89
89
87
89
82
81
65
23
51
217
114
25
38
239
242
126
82
78
79
79
72
67
69
70
67
67
65
69
71
75
76
82
81
80
83
89
90
89
89
165
158
71
65
60
63
64
66
71
73
81
90
94
94
92
90
88
87
86
84
85
90
91
88
87
83
88
90
87
85
82
31
17
161
178
54
18
162
224
146
87
82
79
84
86
87
87
82
78
72
69
66
70
77
79
76
75
80
85
93
94
94
91
87
162
155
67
66
64
61
65
68
73
77
85
88
87
86
81
78
77
75
72
74
75
77
81
78
74
72
75
79
81
77
61
13
39
125
51
16
59
224
184
85
75
72
70
75
80
82
86
89
87
79
69
67
67
65
65
68
72
79
85
87
85
83
83
86
164
161
75
67
62
61
64
67
70
71
74
73
72
72
70
67
73
78
76
74
71
73
76
71
65
64
64
69
71
73
69
20
74
41
12
46
241
235
88
71
72
66
61
67
76
86
92
91
89
90
82
71
67
67
71
71
73
77
81
77
73
77
83
85
162
158
73
72
70
72
76
76
73
72
76
73
70
75
75
71
72
79
80
75
73
75
78
77
74
75
77
79
86
90
91
75
85
98
100
248
245
114
71
75
72
71
69
73
81
91
93
93
93
91
88
83
76
80
79
77
74
73
74
72
73
79
87
88
165
160
80
79
80
79
73
78
78
80
75
69
66
73
78
80
84
83
81
76
73
75
80
83
81
83
87
92
94
94
94
101
88
207
226
249
166
69
71
73
74
75
77
81
89
94
94
93
87
85
81
78
78
84
83
82
77
74
70
68
73
74
73
79
162
