/* XPM */
static char * oblige_xpm[] = {
"32 32 26 1",
" 	c None",
".	c #A6A600",
"+	c #B5B900",
"@	c #8E881C",
"#	c #C8CD00",
"$	c #E3E600",
"%	c #8E3F98",
"&	c #7A6140",
"*	c #874B7E",
"=	c #A55198",
"-	c #C866B7",
";	c #DA78BB",
">	c #A2802E",
",	c #AE8D25",
"'	c #B55AA8",
")	c #E77AD4",
"!	c #D871C8",
"~	c #723C68",
"{	c #944C88",
"]	c #B79722",
"^	c #C36C9D",
"/	c #B97473",
"(	c #9E9A07",
"_	c #A57844",
":	c #868A00",
"<	c #9D6168",
"                                ",
"       .++++++++++++++++@       ",
"       .+++++++++#$$$$$+@       ",
"             %%%&.$$$#.         ",
"           *=-;>+$$+,&          ",
"         *');,#$$+>;!=~         ",
"        {!;]#$$$+>^-))-*        ",
"       {!)>$$$$$$##++/)!*       ",
"      *-)-^>]((.#$$$#/-)-*      ",
"      ')!))-==%%.$$#_)-!)=      ",
"     {!!)!{~   .$$+>{')!)!*     ",
"     =))!{   :+$#.   *')!){     ",
"    ~-)){   (#$#(     *-))'     ",
"    *!)-*  .#$#:       {))-     ",
"    {!)'  .$$$$+++.    {))-*    ",
"    {!)'  .+++#$$$#@   *!)-*    ",
"    *-)-~     @+$$.    {))-     ",
"     ')){     :$$.    *'))=     ",
"     {))-*   :$$.     =))){     ",
"     *-))-{ .$$#(:  *=)!)-~     ",
"      =)!)!'<].#.(_{-)!!){      ",
"      ~')-)))!-''-!))!-)'~      ",
"       *-)!--)))))!!-!)'~       ",
"        {'))-------!))=~        ",
"         ~{-))))))))-{          ",
"           *{='--'%<>           ",
"              &>,.$$.           ",
"                 +$#            ",
"                ($#(            ",
"                #$.             ",
"               :$+              ",
"                ((              "};
